# xmcd
#
# Track frame offsets:
#	150
#	12951
#	29062
#	45634
#	64940
#	80152
#	106241
#	125978
#
# Disc length: 1868 seconds
#
# Revision: 1
# Processed by: cddbd v1.5.2PL0 Copyright (c) Steve Scherf et al.
# Submitted via: audiograbber 1.83.01
#
DISCID=71074a08
DTITLE=Phil Cohen and Patricia Ford - Caution To The Wind Phil Cohen and Patricia F
DTITLE=ord
DYEAR=2000
DGENRE=Country
TTITLE0=Hard Time Lover
TTITLE1=Shadow Of A Heart
TTITLE2=Touch Of An Angel´s Hand
TTITLE3=Frall Light
TTITLE4=Hard Miles
TTITLE5=War For The Roses
TTITLE6=Palerider
TTITLE7=Stars And Moon
EXTD=
EXTT0=
EXTT1=
EXTT2=
EXTT3=
EXTT4=
EXTT5=
EXTT6=
EXTT7=
PLAYORDER=
